<?xml version="1.0" encoding="utf-8"?>
<!-- Generator: Adobe Illustrator 25.0.1, SVG Export Plug-In . SVG Version: 6.00 Build 0)  -->
<svg version="1.1" id="Layer_1" xmlns="http://www.w3.org/2000/svg" xmlns:xlink="http://www.w3.org/1999/xlink" x="0px" y="0px"
	 viewBox="0 0 842 184" style="enable-background:new 0 0 842 184;" xml:space="preserve">
<style type="text/css">
	.st0{fill-rule:evenodd;clip-rule:evenodd;fill:#0079BF;}
	.st1{fill:#253858;}
</style>
<g id="Layer_1_1_">
	<desc>Created with Sketch.</desc>
</g>
<g id="Blue_BG">
</g>
<g id="Artwork">
	<g>
		<path class="st0" d="M155.7,9.7H30.1c-10.8,0-19.6,8.8-19.6,19.6V155c0,10.8,8.8,19.6,19.6,19.6h125.7c10.8,0,19.6-8.8,19.6-19.6
			V29.3C175.3,18.4,166.6,9.7,155.7,9.7z M81.5,128.4c0,3.6-2.9,6.5-6.5,6.5H47.4c-3.6,0-6.5-2.9-6.5-6.5V46.6
			c0-3.6,2.9-6.5,6.5-6.5H75c3.6,0,6.5,2.9,6.5,6.5V128.4z M144.9,90.9c0,3.6-2.9,6.5-6.5,6.5h-27.6c-3.6,0-6.5-2.9-6.5-6.5V46.6
			c0-3.6,2.9-6.5,6.5-6.5h27.6c3.6,0,6.5,2.9,6.5,6.5V90.9z"/>
	</g>
</g>
</svg>
